<mxfile host="app.diagrams.net" agent="Mozilla/5.0 (Windows NT 10.0; Win64; x64; rv:135.0) Gecko/20100101 Firefox/135.0" version="26.0.16">
  <diagram name="Страница — 1" id="of6hsHwBK8WOqTQMdUfa">
    <mxGraphModel dx="882" dy="611" grid="1" gridSize="10" guides="1" tooltips="1" connect="1" arrows="1" fold="1" page="1" pageScale="1" pageWidth="827" pageHeight="1169" math="0" shadow="0">
      <root>
        <mxCell id="0" />
        <mxCell id="1" parent="0" />
        <mxCell id="NyDjsrUSk0rDyOlAN_-l-1" value="" style="rounded=0;whiteSpace=wrap;html=1;movable=0;resizable=0;rotatable=0;deletable=0;editable=0;locked=1;connectable=0;" vertex="1" parent="1">
          <mxGeometry width="600" height="460" as="geometry" />
        </mxCell>
        <mxCell id="NyDjsrUSk0rDyOlAN_-l-2" value="&lt;b&gt;Пользователь&lt;/b&gt;" style="text;html=1;align=center;verticalAlign=middle;resizable=0;points=[];autosize=1;strokeColor=none;fillColor=none;" vertex="1" parent="1">
          <mxGeometry x="45" width="110" height="30" as="geometry" />
        </mxCell>
        <mxCell id="NyDjsrUSk0rDyOlAN_-l-3" value="Администратор" style="text;html=1;align=center;verticalAlign=middle;resizable=0;points=[];autosize=1;strokeColor=none;fillColor=none;fontStyle=1" vertex="1" parent="1">
          <mxGeometry x="248.5" width="110" height="30" as="geometry" />
        </mxCell>
        <mxCell id="NyDjsrUSk0rDyOlAN_-l-4" value="" style="endArrow=none;dashed=1;html=1;rounded=0;entryX=0.5;entryY=0;entryDx=0;entryDy=0;" edge="1" parent="1">
          <mxGeometry width="50" height="50" relative="1" as="geometry">
            <mxPoint x="200" y="460" as="sourcePoint" />
            <mxPoint x="199.99999999999977" as="targetPoint" />
          </mxGeometry>
        </mxCell>
        <mxCell id="NyDjsrUSk0rDyOlAN_-l-5" value="" style="ellipse;fillColor=strokeColor;html=1;" vertex="1" parent="1">
          <mxGeometry x="90" y="40" width="20" height="20" as="geometry" />
        </mxCell>
        <mxCell id="NyDjsrUSk0rDyOlAN_-l-6" value="" style="endArrow=open;endFill=1;endSize=12;html=1;rounded=0;entryX=0.5;entryY=0;entryDx=0;entryDy=0;" edge="1" parent="1" source="NyDjsrUSk0rDyOlAN_-l-5" target="NyDjsrUSk0rDyOlAN_-l-7">
          <mxGeometry width="160" relative="1" as="geometry">
            <mxPoint x="120" y="70" as="sourcePoint" />
            <mxPoint x="100" y="100" as="targetPoint" />
          </mxGeometry>
        </mxCell>
        <mxCell id="NyDjsrUSk0rDyOlAN_-l-7" value="Редактировать рецепт" style="html=1;align=center;verticalAlign=top;rounded=1;absoluteArcSize=1;arcSize=10;dashed=0;whiteSpace=wrap;" vertex="1" parent="1">
          <mxGeometry x="40" y="100" width="120" height="40" as="geometry" />
        </mxCell>
        <mxCell id="NyDjsrUSk0rDyOlAN_-l-8" value="Проверить рецепт" style="html=1;align=center;verticalAlign=top;rounded=1;absoluteArcSize=1;arcSize=10;dashed=0;whiteSpace=wrap;" vertex="1" parent="1">
          <mxGeometry x="241" y="170" width="120" height="30" as="geometry" />
        </mxCell>
        <mxCell id="NyDjsrUSk0rDyOlAN_-l-9" value="" style="endArrow=open;endFill=1;endSize=12;html=1;rounded=0;exitX=1;exitY=0.5;exitDx=0;exitDy=0;entryX=0;entryY=0.5;entryDx=0;entryDy=0;" edge="1" parent="1" source="NyDjsrUSk0rDyOlAN_-l-7" target="NyDjsrUSk0rDyOlAN_-l-18">
          <mxGeometry width="160" relative="1" as="geometry">
            <mxPoint x="110" y="70" as="sourcePoint" />
            <mxPoint x="560" y="130" as="targetPoint" />
          </mxGeometry>
        </mxCell>
        <mxCell id="NyDjsrUSk0rDyOlAN_-l-10" value="" style="rhombus;" vertex="1" parent="1">
          <mxGeometry x="286" y="260" width="30" height="30" as="geometry" />
        </mxCell>
        <mxCell id="NyDjsrUSk0rDyOlAN_-l-11" value="" style="endArrow=open;endFill=1;endSize=12;html=1;rounded=0;exitX=0.5;exitY=1;exitDx=0;exitDy=0;entryX=0.5;entryY=0;entryDx=0;entryDy=0;" edge="1" parent="1" source="NyDjsrUSk0rDyOlAN_-l-8" target="NyDjsrUSk0rDyOlAN_-l-10">
          <mxGeometry width="160" relative="1" as="geometry">
            <mxPoint x="97" y="215" as="sourcePoint" />
            <mxPoint x="251" y="215" as="targetPoint" />
          </mxGeometry>
        </mxCell>
        <mxCell id="NyDjsrUSk0rDyOlAN_-l-12" value="[Рецепт корректен?]" style="edgeLabel;html=1;align=center;verticalAlign=middle;resizable=0;points=[];fontSize=10;" vertex="1" connectable="0" parent="NyDjsrUSk0rDyOlAN_-l-11">
          <mxGeometry x="0.218" y="2" relative="1" as="geometry">
            <mxPoint x="-2" y="-13" as="offset" />
          </mxGeometry>
        </mxCell>
        <mxCell id="NyDjsrUSk0rDyOlAN_-l-13" value="" style="endArrow=open;endFill=1;endSize=12;html=1;rounded=0;exitX=0.5;exitY=1;exitDx=0;exitDy=0;entryX=0.5;entryY=0;entryDx=0;entryDy=0;" edge="1" parent="1" source="NyDjsrUSk0rDyOlAN_-l-10" target="NyDjsrUSk0rDyOlAN_-l-15">
          <mxGeometry width="160" relative="1" as="geometry">
            <mxPoint x="311" y="230" as="sourcePoint" />
            <mxPoint x="301" y="370" as="targetPoint" />
          </mxGeometry>
        </mxCell>
        <mxCell id="NyDjsrUSk0rDyOlAN_-l-14" value="[Да]" style="edgeLabel;html=1;align=center;verticalAlign=middle;resizable=0;points=[];fontSize=10;" vertex="1" connectable="0" parent="NyDjsrUSk0rDyOlAN_-l-13">
          <mxGeometry x="0.218" y="2" relative="1" as="geometry">
            <mxPoint x="-2" y="-13" as="offset" />
          </mxGeometry>
        </mxCell>
        <mxCell id="NyDjsrUSk0rDyOlAN_-l-15" value="Опубликовать обновлённый рецепт" style="html=1;align=center;verticalAlign=top;rounded=1;absoluteArcSize=1;arcSize=10;dashed=0;whiteSpace=wrap;" vertex="1" parent="1">
          <mxGeometry x="230" y="340" width="140" height="40" as="geometry" />
        </mxCell>
        <mxCell id="NyDjsrUSk0rDyOlAN_-l-16" value="" style="endArrow=none;dashed=1;html=1;rounded=0;entryX=0.5;entryY=0;entryDx=0;entryDy=0;" edge="1" parent="1">
          <mxGeometry width="50" height="50" relative="1" as="geometry">
            <mxPoint x="400" y="460" as="sourcePoint" />
            <mxPoint x="399.9999999999998" as="targetPoint" />
          </mxGeometry>
        </mxCell>
        <mxCell id="NyDjsrUSk0rDyOlAN_-l-17" value="Сервис" style="text;html=1;align=center;verticalAlign=middle;resizable=0;points=[];autosize=1;strokeColor=none;fillColor=none;fontStyle=1" vertex="1" parent="1">
          <mxGeometry x="470" width="60" height="30" as="geometry" />
        </mxCell>
        <mxCell id="NyDjsrUSk0rDyOlAN_-l-18" value="&lt;div&gt;Изменить&lt;/div&gt;&lt;div&gt;состояние рецепта на «на модерации»&lt;/div&gt;" style="html=1;align=center;verticalAlign=top;rounded=1;absoluteArcSize=1;arcSize=10;dashed=0;whiteSpace=wrap;" vertex="1" parent="1">
          <mxGeometry x="440" y="89" width="120" height="60" as="geometry" />
        </mxCell>
        <mxCell id="NyDjsrUSk0rDyOlAN_-l-19" value="" style="endArrow=open;endFill=1;endSize=12;html=1;rounded=0;exitX=0.5;exitY=1;exitDx=0;exitDy=0;entryX=1;entryY=0.5;entryDx=0;entryDy=0;" edge="1" parent="1" source="NyDjsrUSk0rDyOlAN_-l-18" target="NyDjsrUSk0rDyOlAN_-l-8">
          <mxGeometry width="160" relative="1" as="geometry">
            <mxPoint x="99.5" y="140" as="sourcePoint" />
            <mxPoint x="544.5" y="140" as="targetPoint" />
            <Array as="points">
              <mxPoint x="500" y="185" />
            </Array>
          </mxGeometry>
        </mxCell>
        <mxCell id="NyDjsrUSk0rDyOlAN_-l-20" value="Удалить рецепт и связанные с ним данные" style="html=1;align=center;verticalAlign=top;rounded=1;absoluteArcSize=1;arcSize=10;dashed=0;whiteSpace=wrap;" vertex="1" parent="1">
          <mxGeometry x="440" y="245.25" width="120" height="59.5" as="geometry" />
        </mxCell>
        <mxCell id="NyDjsrUSk0rDyOlAN_-l-21" value="" style="endArrow=open;endFill=1;endSize=12;html=1;rounded=0;exitX=1;exitY=0.5;exitDx=0;exitDy=0;" edge="1" parent="1" source="NyDjsrUSk0rDyOlAN_-l-10" target="NyDjsrUSk0rDyOlAN_-l-20">
          <mxGeometry width="160" relative="1" as="geometry">
            <mxPoint x="311.5" y="330" as="sourcePoint" />
            <mxPoint x="311" y="380" as="targetPoint" />
          </mxGeometry>
        </mxCell>
        <mxCell id="NyDjsrUSk0rDyOlAN_-l-22" value="[Нет]" style="edgeLabel;html=1;align=center;verticalAlign=middle;resizable=0;points=[];fontSize=10;" vertex="1" connectable="0" parent="NyDjsrUSk0rDyOlAN_-l-21">
          <mxGeometry x="0.218" y="2" relative="1" as="geometry">
            <mxPoint x="-26" y="2" as="offset" />
          </mxGeometry>
        </mxCell>
        <mxCell id="NyDjsrUSk0rDyOlAN_-l-23" value="" style="ellipse;html=1;shape=endState;fillColor=strokeColor;" vertex="1" parent="1">
          <mxGeometry x="290" y="420" width="20" height="20" as="geometry" />
        </mxCell>
        <mxCell id="NyDjsrUSk0rDyOlAN_-l-24" value="" style="endArrow=open;endFill=1;endSize=12;html=1;rounded=0;exitX=0.5;exitY=1;exitDx=0;exitDy=0;entryX=1;entryY=0.5;entryDx=0;entryDy=0;" edge="1" parent="1" source="NyDjsrUSk0rDyOlAN_-l-20" target="NyDjsrUSk0rDyOlAN_-l-23">
          <mxGeometry width="160" relative="1" as="geometry">
            <mxPoint x="310.5" y="420" as="sourcePoint" />
            <mxPoint x="299.5" y="470" as="targetPoint" />
            <Array as="points">
              <mxPoint x="500" y="430" />
            </Array>
          </mxGeometry>
        </mxCell>
        <mxCell id="NyDjsrUSk0rDyOlAN_-l-25" value="" style="endArrow=open;endFill=1;endSize=12;html=1;rounded=0;entryX=0.5;entryY=0;entryDx=0;entryDy=0;exitX=0.5;exitY=1;exitDx=0;exitDy=0;" edge="1" parent="1" source="NyDjsrUSk0rDyOlAN_-l-15" target="NyDjsrUSk0rDyOlAN_-l-23">
          <mxGeometry width="160" relative="1" as="geometry">
            <mxPoint x="110" y="70" as="sourcePoint" />
            <mxPoint x="110" y="110" as="targetPoint" />
          </mxGeometry>
        </mxCell>
      </root>
    </mxGraphModel>
  </diagram>
</mxfile>
